{
	"asset":{
		"version":"2.0",
		"generator":"Created using the official Cinema 4D glTF Exporter 1.000x284978"
	},
	"scenes":[{
		"nodes":[0]
	}],
	"nodes":[{
		"name":"group_1",
		"translation":[-0.05982333794236183,
		0.0,
		0.05660382658243179],
		"rotation":[0.0,
		0.0,
		0.0,
		-1.0],
		"scale":[1.0,
		1.0,
		1.0],
		"children":[1,
		2,
		3]
	},
	{
		"name":"group_1-b67c0e81ce6d40a8aeb0ef036b081aa3_brush_WetPaint",
		"mesh":0
	},
	{
		"name":"group_1-2d35bcf0e4d8452c97b13311be063130_brush_Flat",
		"mesh":1
	},
	{
		"name":"group_1-0d3889f33ede470c8af4f44813306126_brush_DoubleTaperedFlat",
		"mesh":2
	}],
	"meshes":[{
		"name":"group_1-b67c0e81ce6d40a8aeb0ef036b081aa3_brush_WetPaint",
		"primitives":[{
			"attributes":{
				"POSITION":1,
				"NORMAL":2,
				"TEXCOORD_0":3
			},
			"indices":0,
			"material":0
		}]
	},
	{
		"name":"group_1-2d35bcf0e4d8452c97b13311be063130_brush_Flat",
		"primitives":[{
			"attributes":{
				"POSITION":5,
				"NORMAL":6,
				"TEXCOORD_0":7
			},
			"indices":4,
			"material":1
		}]
	},
	{
		"name":"group_1-0d3889f33ede470c8af4f44813306126_brush_DoubleTaperedFlat",
		"primitives":[{
			"attributes":{
				"POSITION":9,
				"NORMAL":10,
				"TEXCOORD_0":11
			},
			"indices":8,
			"material":2
		}]
	}],
	"accessors":[{
		"bufferView":0,
		"type":"SCALAR",
		"min":[0],
		"componentType":5123,
		"count":34488,
		"byteOffset":0,
		"max":[12119]
	},
	{
		"bufferView":1,
		"type":"VEC3",
		"min":[-11.557044982910157,
		1.2453523874282838,
		-19.44554901123047],
		"componentType":5126,
		"count":12120,
		"byteOffset":0,
		"max":[7.644444465637207,
		13.77568531036377,
		6.829216957092285]
	},
	{
		"bufferView":1,
		"type":"VEC3",
		"min":[-0.999125063419342,
		-0.998593807220459,
		-0.9992188215255737],
		"componentType":5126,
		"count":12120,
		"byteOffset":12,
		"max":[0.9998750686645508,
		0.9999688267707825,
		0.9998750686645508]
	},
	{
		"bufferView":1,
		"type":"VEC2",
		"min":[0.0,
		-1.0],
		"componentType":5126,
		"count":12120,
		"byteOffset":24,
		"max":[1.0,
		0.0]
	},
	{
		"bufferView":2,
		"type":"SCALAR",
		"min":[0],
		"componentType":5123,
		"count":87726,
		"byteOffset":0,
		"max":[30663]
	},
	{
		"bufferView":3,
		"type":"VEC3",
		"min":[-6.425380706787109,
		4.6944355964660648,
		-8.39374828338623],
		"componentType":5126,
		"count":30664,
		"byteOffset":0,
		"max":[8.111231803894043,
		11.317072868347168,
		7.2636518478393559]
	},
	{
		"bufferView":3,
		"type":"VEC3",
		"min":[-0.9998125433921814,
		-0.999625027179718,
		-0.9999688267707825],
		"componentType":5126,
		"count":30664,
		"byteOffset":12,
		"max":[0.9998125433921814,
		0.9999688267707825,
		0.9999063014984131]
	},
	{
		"bufferView":3,
		"type":"VEC2",
		"min":[0.000656054588034749,
		0.0],
		"componentType":5126,
		"count":30664,
		"byteOffset":24,
		"max":[118.98814392089844,
		1.0]
	},
	{
		"bufferView":4,
		"type":"SCALAR",
		"min":[0],
		"componentType":5123,
		"count":36,
		"byteOffset":0,
		"max":[15]
	},
	{
		"bufferView":5,
		"type":"VEC3",
		"min":[12.301383018493653,
		10.474486351013184,
		-17.149532318115236],
		"componentType":5126,
		"count":16,
		"byteOffset":0,
		"max":[16.081878662109376,
		12.27774715423584,
		-11.865951538085938]
	},
	{
		"bufferView":5,
		"type":"VEC3",
		"min":[-0.3778125047683716,
		-0.8747813105583191,
		-0.10912500321865082],
		"componentType":5126,
		"count":16,
		"byteOffset":12,
		"max":[0.5371562838554382,
		0.9274063110351563,
		0.8581875562667847]
	},
	{
		"bufferView":5,
		"type":"VEC2",
		"min":[0.0,
		0.0],
		"componentType":5126,
		"count":16,
		"byteOffset":24,
		"max":[1.0,
		1.0]
	}],
	"bufferViews":[{
		"buffer":0,
		"byteOffset":0,
		"byteLength":68976,
		"target":34963
	},
	{
		"buffer":0,
		"byteOffset":68976,
		"byteLength":387840,
		"target":34962,
		"byteStride":32
	},
	{
		"buffer":1,
		"byteOffset":0,
		"byteLength":175452,
		"target":34963
	},
	{
		"buffer":1,
		"byteOffset":175452,
		"byteLength":981248,
		"target":34962,
		"byteStride":32
	},
	{
		"buffer":2,
		"byteOffset":0,
		"byteLength":72,
		"target":34963
	},
	{
		"buffer":2,
		"byteOffset":72,
		"byteLength":512,
		"target":34962,
		"byteStride":32
	}],
	"buffers":[{
		"uri":"data:application/octet-stream;base64,",
		"byteLength":456816
	},
	{
		"uri":"data:application/octet-stream;base64,",
		"byteLength":1156700
	},
	{
		"uri":"data:application/octet-stream;base64,",
		"byteLength":584
	}],
	"images":[{
		"uri":"data:image/png;base64,"
	}],
	"samplers":[{
		"magFilter":9729,
		"minFilter":9729,
		"wrapS":10497,
		"wrapT":10497
	}],
	"textures":[{
		"sampler":0,
		"source":0
	}],
	"materials":[{
		"emissiveFactor":[0.0,
		0.0,
		0.0],
		"pbrMetallicRoughness":{
			"baseColorTexture":{
				"index":0
			},
			"baseColorFactor":[1.0,
			1.0,
			1.0,
			1.0],
			"metallicFactor":1.0,
			"roughnessFactor":1.0
		},
		"alphaMode":"BLEND",
		"doubleSided":false,
		"name":"b67c0e81ce6d40a8aeb0ef036b081aa3_brush_WetPaint"
	},
	{
		"emissiveFactor":[0.0,
		0.0,
		0.0],
		"pbrMetallicRoughness":{
			"baseColorFactor":[1.0,
			1.0,
			1.0,
			1.0],
			"metallicFactor":1.0,
			"roughnessFactor":1.0
		},
		"alphaMode":"OPAQUE",
		"doubleSided":false,
		"name":"2d35bcf0e4d8452c97b13311be063130_brush_Flat"
	},
	{
		"emissiveFactor":[0.0,
		0.0,
		0.0],
		"pbrMetallicRoughness":{
			"baseColorFactor":[1.0,
			1.0,
			1.0,
			1.0],
			"metallicFactor":1.0,
			"roughnessFactor":1.0
		},
		"alphaMode":"OPAQUE",
		"doubleSided":false,
		"name":"0d3889f33ede470c8af4f44813306126_brush_DoubleTaperedFlat"
	}]
}