{
	"asset":{
		"version":"2.0",
		"generator":"Created using the official Cinema 4D glTF Exporter 1.000x284978"
	},
	"images":[{
		"uri":"data:image/png;base64,"
	},
	{
		"uri":"data:image/png;base64,"
	}],
	"scenes":[{
		"nodes":[0,
		1,
		2]
	}],
	"nodes":[{
		"name":".1",
		"translation":[0.12388916313648224,
		3.442195177078247,
		0.14143887162208558],
		"rotation":[0.0,
		-0.5117118954658508,
		0.0,
		0.8591570854187012],
		"scale":[1.0,
		1.0,
		1.0],
		"children":[3]
	},
	{
		"name":".psd",
		"mesh":0,
		"translation":[-2.4419443607330324,
		1.9419782161712647,
		-0.03910618647933006],
		"rotation":[-0.7071067690849304,
		0.0,
		0.0,
		-0.7071067690849304],
		"scale":[1.0,
		1.0,
		1.0]
	},
	{
		"name":"",
		"translation":[1.1542720794677735,
		1.736998438835144,
		-0.03910618647933006],
		"rotation":[0.6975082159042358,
		-0.1161131039261818,
		0.1161131039261818,
		0.6975082159042358],
		"scale":[1.0,
		1.0,
		1.0],
		"children":[4]
	},
	{
		"name":".1",
		"translation":[0.0,
		0.20588696002960206,
		0.0],
		"rotation":[0.0,
		0.0,
		0.0,
		-1.0],
		"scale":[1.0,
		1.0,
		1.0],
		"children":[5]
	},
	{
		"name":"",
		"mesh":1,
		"translation":[4.884981281880909e-17,
		3.552713599391162e-17,
		-2.3945631758636729e-18],
		"rotation":[0.0,
		0.0,
		0.0,
		-1.0],
		"scale":[1.0,
		1.0,
		1.0]
	},
	{
		"name":".1",
		"mesh":2
	}],
	"materials":[{
		"emissiveFactor":[0.0,
		0.0,
		0.0],
		"pbrMetallicRoughness":{
			"baseColorTexture":{
				"index":0
			},
			"baseColorFactor":[1.0,
			1.0,
			1.0,
			1.0],
			"metallicFactor":1.0,
			"roughnessFactor":1.0
		},
		"alphaMode":"BLEND",
		"doubleSided":true,
		"name":""
	},
	{
		"emissiveFactor":[0.0,
		0.0,
		0.0],
		"pbrMetallicRoughness":{
			"baseColorTexture":{
				"index":1
			},
			"baseColorFactor":[1.0,
			1.0,
			1.0,
			1.0],
			"metallicFactor":1.0,
			"roughnessFactor":1.0
		},
		"alphaMode":"BLEND",
		"doubleSided":true,
		"name":"222"
	},
	{
		"emissiveFactor":[1.0,
		1.0,
		1.0],
		"pbrMetallicRoughness":{
			"baseColorFactor":[1.0,
			1.0,
			1.0,
			1.0],
			"metallicFactor":0.0,
			"roughnessFactor":0.5
		},
		"alphaMode":"OPAQUE",
		"doubleSided":true,
		"name":".2"
	}],
	"meshes":[{
		"name":".psd",
		"primitives":[{
			"attributes":{
				"POSITION":3,
				"NORMAL":4,
				"TEXCOORD_0":5
			},
			"indices":2,
			"material":0
		}]
	},
	{
		"name":"",
		"primitives":[{
			"attributes":{
				"POSITION":7,
				"NORMAL":8,
				"TEXCOORD_0":9
			},
			"indices":6,
			"material":1
		}]
	},
	{
		"name":".1",
		"primitives":[{
			"attributes":{
				"POSITION":13,
				"NORMAL":14,
				"TEXCOORD_0":15
			},
			"indices":12,
			"material":2
		}]
	}],
	"accessors":[{
		"bufferView":0,
		"type":"SCALAR",
		"componentType":5126,
		"count":251,
		"byteOffset":0,
		"min":[0.0],
		"max":[8.333333015441895]
	},
	{
		"bufferView":0,
		"type":"VEC4",
		"componentType":5126,
		"count":251,
		"byteOffset":1004,
		"min":[0.0,
		-0.9999999403953552,
		0.0,
		-1.0],
		"max":[0.0,
		0.0,
		0.0,
		0.8591570854187012]
	},
	{
		"bufferView":1,
		"type":"SCALAR",
		"componentType":5123,
		"count":1500,
		"byteOffset":0,
		"min":[0],
		"max":[285]
	},
	{
		"bufferView":2,
		"type":"VEC3",
		"componentType":5126,
		"count":286,
		"byteOffset":0,
		"min":[-2.599313497543335,
		-2.8421708795129299e-16,
		-1.738276720046997],
		"max":[1.7349998950958253,
		1.4360723495483399,
		1.6294978857040406]
	},
	{
		"bufferView":2,
		"type":"VEC3",
		"componentType":5126,
		"count":286,
		"byteOffset":12,
		"min":[0.0,
		0.8668245077133179,
		0.0],
		"max":[0.4985068738460541,
		1.0,
		0.010312642902135849]
	},
	{
		"bufferView":2,
		"type":"VEC2",
		"componentType":5126,
		"count":286,
		"byteOffset":24,
		"min":[0.0,
		0.0],
		"max":[1.0,
		1.0]
	},
	{
		"bufferView":3,
		"type":"SCALAR",
		"componentType":5123,
		"count":1500,
		"byteOffset":0,
		"min":[0],
		"max":[285]
	},
	{
		"bufferView":4,
		"type":"VEC3",
		"componentType":5126,
		"count":286,
		"byteOffset":0,
		"min":[0.018783146515488626,
		0.0008847584831528366,
		-2.017875909805298],
		"max":[4.459232330322266,
		1.8782440423965455,
		1.381289005279541]
	},
	{
		"bufferView":4,
		"type":"VEC3",
		"componentType":5126,
		"count":286,
		"byteOffset":12,
		"min":[-0.5626670718193054,
		0.8265784978866577,
		0.00003125005605397746],
		"max":[-0.043218888342380527,
		0.9990656971931458,
		0.013187753967940808]
	},
	{
		"bufferView":4,
		"type":"VEC2",
		"componentType":5126,
		"count":286,
		"byteOffset":24,
		"min":[0.0,
		0.0],
		"max":[1.0,
		1.0]
	},
	{
		"bufferView":5,
		"type":"SCALAR",
		"componentType":5126,
		"count":251,
		"byteOffset":0,
		"min":[0.0],
		"max":[8.333333015441895]
	},
	{
		"bufferView":5,
		"type":"VEC4",
		"componentType":5126,
		"count":251,
		"byteOffset":1004,
		"min":[-0.7071067690849304,
		-0.4157550036907196,
		0.0,
		-0.7071067690849304],
		"max":[0.7071062922477722,
		0.0,
		0.4157550036907196,
		0.7071062922477722]
	},
	{
		"bufferView":6,
		"type":"SCALAR",
		"componentType":5123,
		"count":18204,
		"byteOffset":0,
		"min":[0],
		"max":[6605]
	},
	{
		"bufferView":7,
		"type":"VEC3",
		"componentType":5126,
		"count":6606,
		"byteOffset":0,
		"min":[-1.1828114986419678,
		-0.20128381252288819,
		-1.1574376821517945],
		"max":[1.2170270681381226,
		0.06923040747642517,
		1.2424999475479127]
	},
	{
		"bufferView":7,
		"type":"VEC3",
		"componentType":5126,
		"count":6606,
		"byteOffset":12,
		"min":[-0.9999299645423889,
		-1.0,
		-0.9999951124191284],
		"max":[0.9999327063560486,
		1.0,
		0.9999825954437256]
	},
	{
		"bufferView":7,
		"type":"VEC2",
		"componentType":5126,
		"count":6606,
		"byteOffset":24,
		"min":[0.0,
		0.0],
		"max":[1.0,
		1.0]
	}],
	"bufferViews":[{
		"buffer":0,
		"byteOffset":0,
		"byteLength":5020
	},
	{
		"buffer":1,
		"byteOffset":0,
		"byteLength":3000,
		"target":34963
	},
	{
		"buffer":1,
		"byteOffset":3000,
		"byteLength":9152,
		"target":34962,
		"byteStride":32
	},
	{
		"buffer":2,
		"byteOffset":0,
		"byteLength":3000,
		"target":34963
	},
	{
		"buffer":2,
		"byteOffset":3000,
		"byteLength":9152,
		"target":34962,
		"byteStride":32
	},
	{
		"buffer":3,
		"byteOffset":0,
		"byteLength":5020
	},
	{
		"buffer":4,
		"byteOffset":0,
		"byteLength":36408,
		"target":34963
	},
	{
		"buffer":4,
		"byteOffset":36408,
		"byteLength":211392,
		"target":34962,
		"byteStride":32
	}],
	"animations":[{
		"samplers":[{
			"input":0,
			"interpolation":"LINEAR",
			"output":1
		},
		{
			"input":10,
			"interpolation":"LINEAR",
			"output":11
		}],
		"channels":[{
			"sampler":0,
			"target":{
				"node":0,
				"path":"rotation"
			}
		},
		{
			"sampler":1,
			"target":{
				"node":4,
				"path":"rotation"
			}
		}]
	}],
	"buffers":[{
		"uri":"data:application/octet-stream;base64,",
		"byteLength":5020
	},
	{
		"uri":"data:application/octet-stream;base64,",
		"byteLength":12152
	},
	{
		"uri":"data:application/octet-stream;base64,",
		"byteLength":12152
	},
	{
		"uri":"data:application/octet-stream;base64,",
		"byteLength":5020
	},
	{
		"uri":"data:application/octet-stream;base64,",
		"byteLength":247800
	}],
	"samplers":[{
		"magFilter":9729,
		"minFilter":9729,
		"wrapS":10497,
		"wrapT":10497
	},
	{
		"magFilter":9729,
		"minFilter":9729,
		"wrapS":10497,
		"wrapT":10497
	}],
	"textures":[{
		"sampler":0,
		"source":0
	},
	{
		"sampler":1,
		"source":1
	}]
}