{
	"textures":[{
		"sampler":0,
		"source":0
	},
	{
		"sampler":1,
		"source":1
	}],
	"asset":{
		"version":"2.0",
		"generator":"Created using the official Cinema 4D glTF Exporter 1.000x284978"
	},
	"scenes":[{
		"nodes":[0,
		1,
		2,
		3]
	}],
	"materials":[{
		"pbrMetallicRoughness":{
			"baseColorFactor":[1.0,
			1.0,
			1.0,
			1.0],
			"metallicFactor":0.0,
			"roughnessFactor":0.5
		},
		"emissiveFactor":[0.0,
		0.0,
		0.0],
		"alphaMode":"OPAQUE",
		"doubleSided":true,
		"name":"材质.7"
	},
	{
		"pbrMetallicRoughness":{
			"baseColorTexture":{
				"index":0
			},
			"baseColorFactor":[1.0,
			1.0,
			1.0,
			1.0],
			"metallicFactor":0.0,
			"roughnessFactor":0.5
		},
		"emissiveFactor":[0.0,
		0.0,
		0.0],
		"alphaMode":"BLEND",
		"doubleSided":true,
		"name":"材质222"
	},
	{
		"pbrMetallicRoughness":{
			"baseColorTexture":{
				"index":1
			},
			"baseColorFactor":[1.0,
			1.0,
			1.0,
			1.0],
			"metallicFactor":0.0,
			"roughnessFactor":0.5
		},
		"emissiveFactor":[0.0,
		0.0,
		0.0],
		"alphaMode":"BLEND",
		"doubleSided":true,
		"name":"材质"
	},
	{
		"pbrMetallicRoughness":{
			"baseColorFactor":[1.0,
			1.0,
			1.0,
			1.0],
			"metallicFactor":0.0,
			"roughnessFactor":0.5
		},
		"emissiveFactor":[1.0,
		1.0,
		1.0],
		"alphaMode":"OPAQUE",
		"doubleSided":true,
		"name":"材质.2"
	}],
	"nodes":[{
		"name":"平面.2",
		"mesh":0,
		"translation":[-0.05715979263186455,
		-0.32505732774734499,
		0.22926512360572816],
		"rotation":[0.0,
		-0.621199905872345,
		0.0,
		-0.7836521863937378],
		"scale":[1.0,
		1.0,
		1.0]
	},
	{
		"name":"yo.3",
		"mesh":1,
		"translation":[0.498818576335907,
		0.04500638693571091,
		-0.29199281334877016],
		"rotation":[0.0,
		-0.3608432412147522,
		0.0,
		-0.932626485824585],
		"scale":[1.0,
		1.0,
		1.0]
	},
	{
		"name":"jw.psd.3",
		"mesh":2,
		"translation":[-0.5644650459289551,
		0.12591339647769929,
		-0.26101434230804446],
		"rotation":[2.913147501004687e-9,
		-0.3909960389137268,
		-6.857457268694134e-9,
		0.9203923344612122],
		"scale":[1.0,
		1.0,
		1.0]
	},
	{
		"name":"wwwwww",
		"mesh":3,
		"translation":[0.0006399999838322401,
		1.8193439245224,
		0.015348353423178196],
		"rotation":[0.0,
		-0.8470748662948608,
		0.0,
		0.5314735770225525],
		"scale":[1.0,
		1.0,
		1.0]
	}],
	"meshes":[{
		"name":"平面.2",
		"primitives":[{
			"attributes":{
				"POSITION":1,
				"NORMAL":2,
				"TEXCOORD_0":3
			},
			"indices":0,
			"material":0
		}]
	},
	{
		"name":"yo.3",
		"primitives":[{
			"attributes":{
				"POSITION":5,
				"NORMAL":6,
				"TEXCOORD_0":7
			},
			"indices":4,
			"material":1
		}]
	},
	{
		"name":"jw.psd.3",
		"primitives":[{
			"attributes":{
				"POSITION":11,
				"NORMAL":12,
				"TEXCOORD_0":13
			},
			"indices":10,
			"material":2
		}]
	},
	{
		"name":"wwwwww",
		"primitives":[{
			"attributes":{
				"POSITION":17,
				"NORMAL":18,
				"TEXCOORD_0":19
			},
			"indices":16,
			"material":3
		}]
	}],
	"accessors":[{
		"bufferView":0,
		"type":"SCALAR",
		"componentType":5123,
		"count":264,
		"byteOffset":0,
		"min":[0],
		"max":[87]
	},
	{
		"bufferView":1,
		"type":"VEC3",
		"componentType":5126,
		"count":88,
		"byteOffset":0,
		"min":[-0.03268398344516754,
		-0.9651562571525574,
		-0.8696311712265015],
		"max":[0.4732370674610138,
		1.6170568466186524,
		0.8529291749000549]
	},
	{
		"bufferView":1,
		"type":"VEC3",
		"componentType":5126,
		"count":88,
		"byteOffset":12,
		"min":[-0.9998183250427246,
		0.0,
		-0.2876603901386261],
		"max":[-0.7266421914100647,
		0.0,
		0.6870161890983582]
	},
	{
		"bufferView":1,
		"type":"VEC2",
		"componentType":5126,
		"count":88,
		"byteOffset":24,
		"min":[0.0,
		0.0],
		"max":[1.0,
		1.0]
	},
	{
		"bufferView":2,
		"type":"SCALAR",
		"componentType":5123,
		"count":1500,
		"byteOffset":0,
		"min":[0],
		"max":[285]
	},
	{
		"bufferView":3,
		"type":"VEC3",
		"componentType":5126,
		"count":286,
		"byteOffset":0,
		"min":[-0.03193790093064308,
		-1.0028135776519776,
		-0.11229798197746277],
		"max":[4.379538536071777,
		2.471738338470459,
		2.0368618965148927]
	},
	{
		"bufferView":3,
		"type":"VEC3",
		"componentType":5126,
		"count":286,
		"byteOffset":12,
		"min":[-0.8282424807548523,
		-0.027781646698713304,
		0.5603285431861877],
		"max":[0.19209648668766023,
		0.012625440955162049,
		0.999998927116394]
	},
	{
		"bufferView":3,
		"type":"VEC2",
		"componentType":5126,
		"count":286,
		"byteOffset":24,
		"min":[0.0,
		0.0],
		"max":[1.0,
		1.0]
	},
	{
		"bufferView":4,
		"type":"SCALAR",
		"componentType":5126,
		"count":251,
		"byteOffset":0,
		"min":[0.0],
		"max":[8.333333015441895]
	},
	{
		"bufferView":4,
		"type":"VEC4",
		"componentType":5126,
		"count":251,
		"byteOffset":1004,
		"min":[0.0,
		-0.5224985480308533,
		-7.3926935684198728e-9,
		-0.9999933838844299],
		"max":[2.9412563495867518e-9,
		-0.0036368174478411676,
		0.0,
		0.999974250793457]
	},
	{
		"bufferView":5,
		"type":"SCALAR",
		"componentType":5123,
		"count":1500,
		"byteOffset":0,
		"min":[0],
		"max":[285]
	},
	{
		"bufferView":6,
		"type":"VEC3",
		"componentType":5126,
		"count":286,
		"byteOffset":0,
		"min":[-4.232428073883057,
		-1.0614655017852784,
		-0.09038941562175751],
		"max":[0.20236988365650178,
		2.3443329334259035,
		1.9022867679595948]
	},
	{
		"bufferView":6,
		"type":"VEC3",
		"componentType":5126,
		"count":286,
		"byteOffset":12,
		"min":[-0.121221624314785,
		-0.031563520431518558,
		0.6042030453681946],
		"max":[0.7962392568588257,
		0.0,
		1.0]
	},
	{
		"bufferView":6,
		"type":"VEC2",
		"componentType":5126,
		"count":286,
		"byteOffset":24,
		"min":[0.0,
		0.0],
		"max":[1.0,
		1.0]
	},
	{
		"bufferView":7,
		"type":"SCALAR",
		"componentType":5126,
		"count":251,
		"byteOffset":0,
		"min":[0.0],
		"max":[8.333333015441895]
	},
	{
		"bufferView":7,
		"type":"VEC4",
		"componentType":5126,
		"count":251,
		"byteOffset":1004,
		"min":[0.0,
		-0.5519369840621948,
		-6.992397327820754e-9,
		-0.9999970197677612],
		"max":[4.056900593241153e-9,
		-0.002449227264150977,
		0.0,
		0.9999893307685852]
	},
	{
		"bufferView":8,
		"type":"SCALAR",
		"componentType":5123,
		"count":18204,
		"byteOffset":0,
		"min":[0],
		"max":[6605]
	},
	{
		"bufferView":9,
		"type":"VEC3",
		"componentType":5126,
		"count":6606,
		"byteOffset":0,
		"min":[-0.9838647842407227,
		-0.06830333918333054,
		-0.9849979877471924],
		"max":[1.0111210346221924,
		0.15657512843608857,
		1.0100702047348023]
	},
	{
		"bufferView":9,
		"type":"VEC3",
		"componentType":5126,
		"count":6606,
		"byteOffset":12,
		"min":[-0.9999299645423889,
		-1.0,
		-0.9999951124191284],
		"max":[0.9999327063560486,
		1.0,
		0.999982476234436]
	},
	{
		"bufferView":9,
		"type":"VEC2",
		"componentType":5126,
		"count":6606,
		"byteOffset":24,
		"min":[0.0,
		0.0],
		"max":[1.0,
		1.0]
	},
	{
		"bufferView":10,
		"type":"SCALAR",
		"componentType":5126,
		"count":251,
		"byteOffset":0,
		"min":[0.0],
		"max":[8.333333015441895]
	},
	{
		"bufferView":10,
		"type":"VEC4",
		"componentType":5126,
		"count":251,
		"byteOffset":1004,
		"min":[0.0,
		-0.9999995827674866,
		-7.346297348220787e-9,
		-1.0],
		"max":[7.396050882846339e-9,
		0.0,
		6.869453894609023e-9,
		0.9999375939369202]
	}],
	"bufferViews":[{
		"target":34963,
		"buffer":0,
		"byteOffset":0,
		"byteLength":528
	},
	{
		"target":34962,
		"buffer":0,
		"byteOffset":528,
		"byteLength":2816,
		"byteStride":32
	},
	{
		"target":34963,
		"buffer":1,
		"byteOffset":0,
		"byteLength":3000
	},
	{
		"target":34962,
		"buffer":1,
		"byteOffset":3000,
		"byteLength":9152,
		"byteStride":32
	},
	{
		"buffer":2,
		"byteOffset":0,
		"byteLength":5020
	},
	{
		"target":34963,
		"buffer":3,
		"byteOffset":0,
		"byteLength":3000
	},
	{
		"target":34962,
		"buffer":3,
		"byteOffset":3000,
		"byteLength":9152,
		"byteStride":32
	},
	{
		"buffer":4,
		"byteOffset":0,
		"byteLength":5020
	},
	{
		"target":34963,
		"buffer":5,
		"byteOffset":0,
		"byteLength":36408
	},
	{
		"target":34962,
		"buffer":5,
		"byteOffset":36408,
		"byteLength":211392,
		"byteStride":32
	},
	{
		"buffer":6,
		"byteOffset":0,
		"byteLength":5020
	}],
	"buffers":[{
		"uri":"data:application/octet-stream;base64,",
		"byteLength":3344
	},
	{
		"uri":"data:application/octet-stream;base64,",
		"byteLength":12152
	},
	{
		"uri":"data:application/octet-stream;base64,",
		"byteLength":5020
	},
	{
		"uri":"data:application/octet-stream;base64,",
		"byteLength":12152
	},
	{
		"uri":"data:application/octet-stream;base64,",
		"byteLength":5020
	},
	{
		"uri":"data:application/octet-stream;base64,",
		"byteLength":247800
	},
	{
		"uri":"data:application/octet-stream;base64,",
		"byteLength":5020
	}],
	"images":[{
		"uri":"data:image/png;base64,"
	},
	{
		"uri":"data:image/png;base64,"
	}],
	"samplers":[{
		"magFilter":9729,
		"minFilter":9729,
		"wrapS":10497,
		"wrapT":10497
	},
	{
		"magFilter":9729,
		"minFilter":9729,
		"wrapS":10497,
		"wrapT":10497
	}],
	"animations":[{
		"samplers":[{
			"input":8,
			"interpolation":"LINEAR",
			"output":9
		},
		{
			"input":14,
			"interpolation":"LINEAR",
			"output":15
		},
		{
			"input":20,
			"interpolation":"LINEAR",
			"output":21
		}],
		"channels":[{
			"sampler":0,
			"target":{
				"node":1,
				"path":"rotation"
			}
		},
		{
			"sampler":1,
			"target":{
				"node":2,
				"path":"rotation"
			}
		},
		{
			"sampler":2,
			"target":{
				"node":3,
				"path":"rotation"
			}
		}]
	}]
}