{
	"asset":{
		"version":"2.0",
		"generator":"Created using the official Cinema 4D glTF Exporter 1.000x284978"
	},
	"scenes":[{
		"nodes":[0]
	}],
	"nodes":[{
		"name":"挤压",
		"translation":[0.0,
		0.0,
		-40.51521682739258],
		"rotation":[0.0,
		0.0,
		0.0,
		-1.0],
		"scale":[1.0,
		1.0,
		1.0],
		"children":[1]
	},
	{
		"name":"挤压",
		"mesh":0,
		"translation":[0.0,
		0.0,
		0.0],
		"rotation":[0.0,
		0.0,
		0.0,
		-1.0],
		"scale":[1.0,
		1.0,
		1.0]
	}],
	"meshes":[{
		"name":"挤压",
		"primitives":[{
			"attributes":{
				"POSITION":1,
				"TEXCOORD_0":3,
				"NORMAL":2
			},
			"indices":0,
			"material":0
		}]
	}],
	"accessors":[{
		"bufferView":0,
		"type":"SCALAR",
		"componentType":5123,
		"min":[0],
		"count":91464,
		"byteOffset":0,
		"max":[23283]
	},
	{
		"bufferView":1,
		"type":"VEC3",
		"componentType":5126,
		"min":[-193.91477966308595,
		-1.3330339193344117,
		-0.422305166721344],
		"count":23284,
		"byteOffset":0,
		"max":[193.91477966308595,
		29.764148712158204,
		11.299861907958985]
	},
	{
		"bufferView":1,
		"type":"VEC3",
		"componentType":5126,
		"min":[-1.0,
		-1.0,
		-1.0],
		"count":23284,
		"byteOffset":12,
		"max":[1.0,
		1.0,
		1.0]
	},
	{
		"bufferView":1,
		"type":"VEC2",
		"componentType":5126,
		"min":[0.0,
		0.0],
		"count":23284,
		"byteOffset":24,
		"max":[1.0,
		1.0]
	},
	{
		"bufferView":2,
		"type":"SCALAR",
		"componentType":5126,
		"min":[0.0],
		"count":91,
		"byteOffset":0,
		"max":[3.0]
	},
	{
		"bufferView":2,
		"type":"VEC3",
		"componentType":5126,
		"min":[0.0,
		0.0,
		-45.43798828125],
		"count":91,
		"byteOffset":364,
		"max":[0.0,
		0.0,
		0.0]
	}],
	"bufferViews":[{
		"buffer":0,
		"byteOffset":0,
		"byteLength":182928,
		"target":34963
	},
	{
		"buffer":0,
		"byteOffset":182928,
		"byteLength":745088,
		"target":34962,
		"byteStride":32
	},
	{
		"buffer":1,
		"byteOffset":0,
		"byteLength":1456
	}],
	"buffers":[{
		"uri":"data:application/octet-stream;base64,",
		"byteLength":928016
	},
	{
		"uri":"data:application/octet-stream;base64,",
		"byteLength":1456
	}],
	"materials":[{
		"name":"材质",
		"pbrMetallicRoughness":{
			"baseColorFactor":[0.6620573437755372,
			0.013450025504040328,
			0.8652849740932642,
			1.0],
			"metallicFactor":0.79,
			"roughnessFactor":0.0
		},
		"emissiveFactor":[0.0,
		0.0,
		0.0],
		"alphaMode":"OPAQUE",
		"doubleSided":true
	}],
	"animations":[{
		"samplers":[{
			"input":4,
			"interpolation":"LINEAR",
			"output":5
		}],
		"channels":[{
			"sampler":0,
			"target":{
				"node":1,
				"path":"translation"
			}
		}]
	}]
}