{
	"nodes":[{
		"name":"减面",
		"children":[1]
	},
	{
		"name":"FruitCakeSlice",
		"translation":[0.0,
		0.0,
		0.0],
		"rotation":[0.5,
		0.4999999701976776,
		0.4999999701976776,
		-0.5],
		"scale":[100.0,
		100.0,
		100.0],
		"mesh":0
	}],
	"asset":{
		"generator":"Created using the official Cinema 4D glTF Exporter 1.000x284978",
		"version":"2.0"
	},
	"scenes":[{
		"nodes":[0]
	}],
	"meshes":[{
		"name":"FruitCakeSlice",
		"primitives":[{
			"attributes":{
				"POSITION":1,
				"NORMAL":2,
				"TEXCOORD_0":3
			},
			"indices":0,
			"material":0
		}]
	}],
	"accessors":[{
		"bufferView":0,
		"type":"SCALAR",
		"componentType":5123,
		"count":123378,
		"min":[0],
		"byteOffset":0,
		"max":[30210]
	},
	{
		"bufferView":1,
		"type":"VEC3",
		"componentType":5126,
		"count":30211,
		"min":[-11.375596046447754,
		-8.523488998413086,
		0.26119232177734377],
		"byteOffset":0,
		"max":[9.162551879882813,
		14.20885944366455,
		12.81451416015625]
	},
	{
		"bufferView":1,
		"type":"VEC3",
		"componentType":5126,
		"count":30211,
		"min":[-0.9999772906303406,
		-0.9999207258224487,
		-0.9999964237213135],
		"byteOffset":12,
		"max":[0.999864399433136,
		0.9999457001686096,
		0.9999681115150452]
	},
	{
		"bufferView":1,
		"type":"VEC2",
		"componentType":5126,
		"count":30211,
		"min":[0.000244140625,
		-0.9997557401657105],
		"byteOffset":24,
		"max":[0.9997189044952393,
		-0.00024628639221191406]
	}],
	"bufferViews":[{
		"buffer":0,
		"target":34963,
		"byteOffset":0,
		"byteLength":246756
	},
	{
		"buffer":0,
		"target":34962,
		"byteOffset":246756,
		"byteLength":966752,
		"byteStride":32
	}],
	"buffers":[{
		"uri":"data:application/octet-stream;base64,",
		"byteLength":1213508
	}],
	"images":[{
		"uri":"data:image/jpeg;base64,"
	}],
	"samplers":[{
		"magFilter":9729,
		"minFilter":9729,
		"wrapS":10497,
		"wrapT":10497
	}],
	"textures":[{
		"source":0,
		"sampler":0
	}],
	"materials":[{
		"pbrMetallicRoughness":{
			"baseColorTexture":{
				"index":0
			},
			"baseColorFactor":[1.0,
			0.9637305699481865,
			0.9637305699481865,
			1.0],
			"metallicFactor":0.0,
			"roughnessFactor":0.05
		},
		"emissiveFactor":[0.0,
		0.0,
		0.0],
		"alphaMode":"OPAQUE",
		"doubleSided":true,
		"name":"FruitCakeSlice_u1_v1"
	}]
}