{
	"nodes":[{
		"name":"减面",
		"children":[1]
	},
	{
		"name":"Orchid_Highpoly",
		"mesh":0
	}],
	"asset":{
		"generator":"Created using the official Cinema 4D glTF Exporter 1.000x284978",
		"version":"2.0"
	},
	"scenes":[{
		"nodes":[0]
	}],
	"meshes":[{
		"name":"Orchid_Highpoly",
		"primitives":[{
			"attributes":{
				"POSITION":1,
				"NORMAL":2,
				"TEXCOORD_0":3
			},
			"indices":0,
			"material":0
		}]
	}],
	"accessors":[{
		"bufferView":0,
		"type":"SCALAR",
		"componentType":5123,
		"count":60153,
		"byteOffset":0,
		"min":[0],
		"max":[60152]
	},
	{
		"bufferView":1,
		"type":"VEC3",
		"componentType":5126,
		"count":60153,
		"byteOffset":0,
		"min":[-3.2912588119506838,
		0.14386075735092164,
		-2.0023889541625978],
		"max":[7.946116924285889,
		9.421785354614258,
		3.329313039779663]
	},
	{
		"bufferView":1,
		"type":"VEC3",
		"componentType":5126,
		"count":60153,
		"byteOffset":12,
		"min":[-0.9997813105583191,
		-0.9998750686645508,
		-0.9998750686645508],
		"max":[0.9998750686645508,
		0.9999688267707825,
		0.9998750686645508]
	},
	{
		"bufferView":1,
		"type":"VEC2",
		"componentType":5126,
		"count":60153,
		"byteOffset":24,
		"min":[0.0007779999868944287,
		0.00000399999953515362],
		"max":[0.9938160181045532,
		1.0]
	}],
	"bufferViews":[{
		"buffer":0,
		"byteOffset":0,
		"byteLength":120306,
		"target":34963
	},
	{
		"buffer":0,
		"byteOffset":120308,
		"byteLength":1924896,
		"target":34962,
		"byteStride":32
	}],
	"buffers":[{
		"uri":"data:application/octet-stream;base64,",
		"byteLength":2045204
	}],
	"images":[{
		"uri":"data:image/jpeg;base64,"
	}],
	"samplers":[{
		"magFilter":9729,
		"minFilter":9729,
		"wrapS":10497,
		"wrapT":10497
	}],
	"textures":[{
		"sampler":0,
		"source":0
	}],
	"materials":[{
		"pbrMetallicRoughness":{
			"baseColorTexture":{
				"index":0
			},
			"baseColorFactor":[0.8,
			0.8,
			0.8,
			1.0],
			"metallicFactor":0.0,
			"roughnessFactor":0.38
		},
		"emissiveFactor":[0.0,
		0.0,
		0.0],
		"alphaMode":"OPAQUE",
		"doubleSided":true,
		"name":"材质"
	}]
}