{
	"asset":{
		"version":"2.0",
		"generator":"Created using the official Cinema 4D glTF Exporter 1.000x284978"
	},
	"scenes":[{
		"nodes":[0]
	}],
	"nodes":[{
		"name":"挤压",
		"translation":[0.0,
		0.0,
		0.0],
		"rotation":[0.0,
		0.0,
		0.0,
		-1.0],
		"scale":[1.0,
		1.0,
		1.0],
		"children":[1]
	},
	{
		"name":"挤压",
		"mesh":0
	}],
	"meshes":[{
		"name":"挤压",
		"primitives":[{
			"attributes":{
				"POSITION":1,
				"NORMAL":2,
				"TEXCOORD_0":3
			},
			"indices":0,
			"material":0
		}]
	}],
	"accessors":[{
		"bufferView":0,
		"type":"SCALAR",
		"componentType":5123,
		"count":91476,
		"byteOffset":0,
		"min":[0],
		"max":[23202]
	},
	{
		"bufferView":1,
		"type":"VEC3",
		"componentType":5126,
		"count":23203,
		"byteOffset":0,
		"min":[-193.91477966308595,
		-1.3330339193344117,
		-0.422305166721344],
		"max":[193.91477966308595,
		29.764148712158204,
		11.299861907958985]
	},
	{
		"bufferView":1,
		"type":"VEC3",
		"componentType":5126,
		"count":23203,
		"byteOffset":12,
		"min":[-1.0,
		-1.0,
		-1.0],
		"max":[1.0,
		1.0,
		1.0]
	},
	{
		"bufferView":1,
		"type":"VEC2",
		"componentType":5126,
		"count":23203,
		"byteOffset":24,
		"min":[0.0,
		0.0],
		"max":[1.0,
		1.0]
	}],
	"bufferViews":[{
		"buffer":0,
		"byteOffset":0,
		"byteLength":182952,
		"target":34963
	},
	{
		"buffer":0,
		"byteOffset":182952,
		"byteLength":742496,
		"target":34962,
		"byteStride":32
	}],
	"buffers":[{
		"uri":"data:application/octet-stream;base64,",
		"byteLength":925448
	}],
	"materials":[{
		"name":"材质",
		"pbrMetallicRoughness":{
			"baseColorFactor":[0.6620573437755372,
			0.013450025504040328,
			0.8652849740932642,
			1.0],
			"metallicFactor":0.79,
			"roughnessFactor":0.0
		},
		"emissiveFactor":[0.0,
		0.0,
		0.0],
		"alphaMode":"OPAQUE",
		"doubleSided":true
	}]
}