{
	"asset":{
		"version":"2.0",
		"generator":"Created using the official Cinema 4D glTF Exporter 1.000x284978"
	},
	"scenes":[{
		"nodes":[0]
	}],
	"nodes":[{
		"name":"挤压",
		"translation":[0.0,
		0.0,
		0.0],
		"rotation":[0.0,
		0.0,
		0.0,
		-1.0],
		"scale":[1.0,
		1.0,
		1.0],
		"children":[1]
	},
	{
		"name":"挤压",
		"mesh":0
	}],
	"meshes":[{
		"name":"挤压",
		"primitives":[{
			"attributes":{
				"POSITION":1,
				"NORMAL":2,
				"TEXCOORD_0":3
			},
			"indices":0,
			"material":0
		}]
	}],
	"accessors":[{
		"bufferView":0,
		"type":"SCALAR",
		"componentType":5123,
		"count":91476,
		"byteOffset":0,
		"min":[0],
		"max":[23202]
	},
	{
		"bufferView":1,
		"type":"VEC3",
		"componentType":5126,
		"count":23203,
		"byteOffset":0,
		"min":[-397.3115234375,
		-2.731250047683716,
		-0.8652600049972534],
		"max":[397.3115234375,
		60.98369216918945,
		23.152259826660158]
	},
	{
		"bufferView":1,
		"type":"VEC3",
		"componentType":5126,
		"count":23203,
		"byteOffset":12,
		"min":[-1.0,
		-1.0,
		-1.0],
		"max":[1.0,
		1.0,
		1.0]
	},
	{
		"bufferView":1,
		"type":"VEC2",
		"componentType":5126,
		"count":23203,
		"byteOffset":24,
		"min":[0.0,
		0.0],
		"max":[1.0,
		1.0]
	}],
	"bufferViews":[{
		"buffer":0,
		"byteOffset":0,
		"byteLength":182952,
		"target":34963
	},
	{
		"buffer":0,
		"byteOffset":182952,
		"byteLength":742496,
		"target":34962,
		"byteStride":32
	}],
	"buffers":[{
		"uri":"data:application/octet-stream;base64,",
		"byteLength":925448
	}],
	"materials":[{
		"name":"材质",
		"pbrMetallicRoughness":{
			"baseColorFactor":[1.0,
			0.8,
			0.22745098039215684,
			1.0],
			"metallicFactor":0.67,
			"roughnessFactor":0.15
		},
		"emissiveFactor":[0.0,
		0.0,
		0.0],
		"alphaMode":"OPAQUE",
		"doubleSided":true
	}]
}